<?xml version="1.0" standalone="no"?>
<svg xmlns:xlink="http://www.w3.org/1999/xlink" id="wave" style="transform:rotate(0deg); transition: 0.3s" viewBox="0 0 1440 180" version="1.1" xmlns="http://www.w3.org/2000/svg"><defs><linearGradient id="sw-gradient-0" x1="0" x2="0" y1="1" y2="0"><stop stop-color="rgba(198, 236, 230, 1)" offset="0%"/><stop stop-color="rgba(120, 232, 141, 1)" offset="100%"/></linearGradient></defs><path style="transform:translate(0, 0px); opacity:1" fill="url(#sw-gradient-0)" d="M0,162L34.3,138C68.6,114,137,66,206,45C274.3,24,343,30,411,36C480,42,549,48,617,51C685.7,54,754,54,823,72C891.4,90,960,126,1029,135C1097.1,144,1166,126,1234,126C1302.9,126,1371,144,1440,147C1508.6,150,1577,138,1646,120C1714.3,102,1783,78,1851,69C1920,60,1989,66,2057,81C2125.7,96,2194,120,2263,126C2331.4,132,2400,120,2469,108C2537.1,96,2606,84,2674,75C2742.9,66,2811,60,2880,48C2948.6,36,3017,18,3086,15C3154.3,12,3223,24,3291,42C3360,60,3429,84,3497,81C3565.7,78,3634,48,3703,39C3771.4,30,3840,42,3909,66C3977.1,90,4046,126,4114,117C4182.9,108,4251,54,4320,45C4388.6,36,4457,72,4526,72C4594.3,72,4663,36,4731,45C4800,54,4869,108,4903,135L4937.1,162L4937.1,180L4902.9,180C4868.6,180,4800,180,4731,180C4662.9,180,4594,180,4526,180C4457.1,180,4389,180,4320,180C4251.4,180,4183,180,4114,180C4045.7,180,3977,180,3909,180C3840,180,3771,180,3703,180C3634.3,180,3566,180,3497,180C3428.6,180,3360,180,3291,180C3222.9,180,3154,180,3086,180C3017.1,180,2949,180,2880,180C2811.4,180,2743,180,2674,180C2605.7,180,2537,180,2469,180C2400,180,2331,180,2263,180C2194.3,180,2126,180,2057,180C1988.6,180,1920,180,1851,180C1782.9,180,1714,180,1646,180C1577.1,180,1509,180,1440,180C1371.4,180,1303,180,1234,180C1165.7,180,1097,180,1029,180C960,180,891,180,823,180C754.3,180,686,180,617,180C548.6,180,480,180,411,180C342.9,180,274,180,206,180C137.1,180,69,180,34,180L0,180Z"/></svg>